inDegrees=no
num_controls=7
num_derivatives=13
num_iterations=115
num_multipliers=7
num_parameters=0
num_slacks=7
num_states=26
objective=4.936332
objective_accelerations=0.699180
objective_balance=0.024951
objective_effort=0.675494
objective_height=3.429806
objective_ligament=0.106902
solver_duration=1166.457589
status=Solve_Succeeded
success=true
DataType=double
version=3
OpenSimVersion=4.4-2022-07-23-0e9fedc
endheader
time	/jointset/ground_pelvis/pelvis_tilt/value	/jointset/ground_pelvis/pelvis_tx/value	/jointset/ground_pelvis/pelvis_ty/value	/jointset/hip_l/hip_flexion_l/value	/jointset/hip_l/hip_adduction_l/value	/jointset/hip_l/hip_rotation_l/value	/jointset/back/lumbar_extension/value	/jointset/patellofemoral_l/patellar_flexion_l/value	/jointset/knee_l/knee_flexion_l/value	/jointset/knee_l/knee_adduction_l/value	/jointset/knee_l/knee_rotation_l/value	/jointset/ankle_l/ankle_angle_l/value	/jointset/subtalar_l/subtalar_angle_l/value	/jointset/ground_pelvis/pelvis_tilt/speed	/jointset/ground_pelvis/pelvis_tx/speed	/jointset/ground_pelvis/pelvis_ty/speed	/jointset/hip_l/hip_flexion_l/speed	/jointset/hip_l/hip_adduction_l/speed	/jointset/hip_l/hip_rotation_l/speed	/jointset/back/lumbar_extension/speed	/jointset/patellofemoral_l/patellar_flexion_l/speed	/jointset/knee_l/knee_flexion_l/speed	/jointset/knee_l/knee_adduction_l/speed	/jointset/knee_l/knee_rotation_l/speed	/jointset/ankle_l/ankle_angle_l/speed	/jointset/subtalar_l/subtalar_angle_l/speed	/forceset/tau_hip_flexion_l	/forceset/tau_hip_adduction_l	/forceset/tau_hip_rotation_l	/forceset/tau_knee_flexion_l	/forceset/tau_ankle_angle_l	/forceset/tau_subtalar_angle_l	/forceset/tau_lumbar_extension	lambda_cid13_p0	lambda_cid13_p1	lambda_cid13_p2	lambda_cid13_p3	lambda_cid13_p4	lambda_cid13_p5	lambda_cid14_p0	/jointset/ground_pelvis/pelvis_tilt/accel	/jointset/ground_pelvis/pelvis_tx/accel	/jointset/ground_pelvis/pelvis_ty/accel	/jointset/hip_l/hip_flexion_l/accel	/jointset/hip_l/hip_adduction_l/accel	/jointset/hip_l/hip_rotation_l/accel	/jointset/back/lumbar_extension/accel	/jointset/patellofemoral_l/patellar_flexion_l/accel	/jointset/knee_l/knee_flexion_l/accel	/jointset/knee_l/knee_adduction_l/accel	/jointset/knee_l/knee_rotation_l/accel	/jointset/ankle_l/ankle_angle_l/accel	/jointset/subtalar_l/subtalar_angle_l/accel	gamma_cid13_p0	gamma_cid13_p1	gamma_cid13_p2	gamma_cid13_p3	gamma_cid13_p4	gamma_cid13_p5	gamma_cid14_p0
1	-0.08687843170341851	-0.07377626953144817	0.4195084662984018	2.090159576749299	-0.2949396322503562	0.1224295632178186	-0.9599283638026564	2.093051151678828	2.093051151678818	0.1744580706869126	-0.1745279579599406	0.2370340728274181	0.08844979488427805	0.02358507947852725	0.0009892766209226012	0.06770923342856887	-0.2489034019843901	-0.01717770399184798	-0.04681603823422587	0.0001791987891312871	-0.1348046694125201	-0.134804669412522	-0.01345288454121283	0.0001873709965693618	0.08557869620413838	0.01801932695153408	-0.36671827432252	-0.04614609089741892	-0.06253573636631027	-0.4389670075327898	0.1267329477369448	0.0009044234758604536	0.4282975511812053	-16.10632924867739	11.67180889641445	-12.87455367744135	23.77993127145768	-848.1741598520368	-33.98882047659789	-0.02263675197117249	-0.9520354903119859	-0.6393584300534277	2.497509835569744	-7.277418848960778	-0.3648974750854465	-1.679743430873137	0.0005036523464286	-6.820559605530826	-6.820559605530955	-1.151048532374236	0.01026109795350819	1.010438119170297	0.0254283170990065	3.015157560355164e-09	1.525261080828683e-08	-2.525416348664564e-07	2.801281119465617e-08	-3.53505042139392e-08	-3.121804619585681e-07	3.159559177819037e-08
1.01	-0.08669008168785852	-0.07379836638309938	0.4203109972468353	2.087304985583423	-0.2951283076631073	0.1218815284175594	-0.9599265790564321	2.091360620378707	2.091360620378706	0.1742624417147553	-0.1745250958046357	0.2379404575639579	0.0886329582097784	0.01410952901668685	-0.005403597633364333	0.09284706121017351	-0.3221296635500165	-0.0205374561309974	-0.06275062477880211	0.0001759177228886134	-0.2034322230038219	-0.2034322230038265	-0.02574580237495917	0.0003771437793050869	0.09564905540307642	0.01861610080939595	-0.3677536625224633	-0.04593567960235784	-0.0624538055138971	-0.4409027363402171	0.1267586206890996	0.001161693825217185	0.4295469486781746	-16.21277928568086	11.5890241776788	-12.87313116387647	23.86947884040929	-850.0965770908845	-34.46803193535068	-0.02275944835646319	-0.9416213703632023	-0.638495614943061	2.529420667342952	-7.362453188560321	-0.3184637916128329	-1.544267796571733	-0.001018898781579684	-6.903457349635651	-6.903457349635863	-1.279307320870127	0.02206354774677044	0.9979527977842383	0.07726089223589801	1.877789592230096e-08	-1.215156432789219e-08	-3.551074626474254e-07	-5.113977612884756e-09	-7.126196006162208e-08	-5.11010863188437e-07	4.612848998372599e-08
1.02	-0.08659574848617332	-0.07388424071565837	0.4213664067566621	2.083714687126252	-0.2953499705389083	0.1211753574457935	-0.9599248821033556	2.088979892719933	2.08897989271995	0.1739417047816434	-0.1745205902855932	0.2389460694879915	0.08882218106827872	0.004781716705122608	-0.01176621956063364	0.1182849457072431	-0.3960448602435125	-0.02377519660147948	-0.078443272536246	0.0001616401497619413	-0.272843941143357	-0.2728439411433632	-0.03847447668852174	0.0005160437345554082	0.1054241337031604	0.01923123355149221	-0.3687890507223973	-0.0457252683072914	-0.06237187466181728	-0.4428384651476422	0.1267842936412504	0.001418964174582234	0.4307963461751529	-16.30705245564938	11.50515581737869	-12.87273327756584	23.92314780724512	-851.8538963214664	-34.90883449669091	-0.02293960237425701	-0.9224878602568332	-0.6333079646498225	2.557521178662742	-7.415205874534662	-0.3404951413522886	-1.631355673446762	-0.001695649031088414	-6.977392515177395	-6.977392515177334	-1.238199828337543	8.653245595927148e-05	0.951381939399603	0.02910009394554222	3.825477050179449e-08	-5.854125194548098e-08	-5.023537251219393e-07	-3.435389441079813e-08	-1.112224589373335e-07	-8.580889579679113e-07	7.298012778583783e-08
1.03	-0.08659359667170159	-0.07403342655298031	0.4226776552633635	2.079382008947683	-0.2956033619205905	0.120313784104131	-0.9599233910937858	2.085901401408027	2.085901401408057	0.1734913498825515	-0.1745150673908206	0.2400476702977596	0.08901756316468687	-0.004290805709124376	-0.01804957746837553	0.144011201943795	-0.4705863050634939	-0.02687866971399453	-0.09384179414242454	0.0001333551246194186	-0.3429583627772566	-0.3429583627772861	-0.05164553847506653	0.0005862285936953241	0.1148187637002102	0.01984096275888449	-0.3699743987719067	-0.04546031222350455	-0.06216646237669452	-0.4449435647626357	0.1270742052751866	0.001825798572443688	0.4322390978306924	-16.30581033078057	11.33024101216032	-12.84712118563759	23.72758597729231	-853.7120946930378	-35.53682835380044	-0.02316085237581166	-0.8905447264939274	-0.6226570261153396	2.587114305498888	-7.487937202915689	-0.2915064602526857	-1.489647163383396	-0.003875927258810554	-7.044093373222499	-7.044093373225929	-1.363832835799693	0.00997540186282391	0.9219112169077746	0.07637041391514902	5.776954443044669e-08	-1.051246692822679e-07	-6.500559103994487e-07	-6.355414924942956e-08	-1.512242745786371e-07	-1.206679784314219e-06	9.995746701240459e-08
1.04	-0.08668035214027919	-0.0742448074338351	0.4242475536242998	2.074301051637478	-0.2958870346462052	0.1192991161945854	-0.95992227913401	2.082118640602637	2.082118640602679	0.1729078296691912	-0.1745089444595795	0.2412408989449066	0.08921893476912476	-0.01299973990277773	-0.024205228267197	0.1700149165542441	-0.5457006865709025	-0.02983146538857526	-0.1090621861158002	8.58301793617831e-05	-0.4136978398402073	-0.4136978398402599	-0.06510753954109004	0.0006360510216217039	0.1237497011792636	0.02042913515743612	-0.3711597468213973	-0.04519535613970384	-0.06196105009159088	-0.4470486643776325	0.127364116909117	0.002232632970320564	0.4336818494862492	-16.2927967453247	11.15351422020111	-12.82150461674494	23.49879309449156	-855.4096897668278	-36.13238139092046	-0.02343910720837281	-0.8497702161382132	-0.6077665428656619	2.613012853442176	-7.529793212020107	-0.310359653765668	-1.595729746886269	-0.005543633054539588	-7.102403600987567	-7.102403600987453	-1.296387684233325	-0.003985953787101361	0.8586434358004708	0.02478873217716711	7.942360048486334e-08	-1.594423200739694e-07	-8.089627083654391e-07	-9.348430758777172e-08	-1.911336657866926e-07	-1.598464384397097e-06	1.307347361404464e-07
1.05	-0.08685209919662669	-0.07451695015148126	0.4260788053383948	2.068466461897712	-0.2961994597998152	0.1181335286820359	-0.9599217006871019	2.077625642443103	2.077625642443143	0.1721879930980962	-0.1745025836799977	0.2425207552276117	0.08942593776584533	-0.02126137840148919	-0.03018659283305855	0.1962752894539078	-0.6212797515804944	-0.03262460869389532	-0.1240210909226658	2.978752754552633e-05	-0.4849796089010767	-0.4849796089010805	-0.07889979791044593	0.0006339631016106509	0.1321101106417248	0.02095717214228655	-0.3723935134715337	-0.0448798319273576	-0.06161815331560749	-0.4493156932195921	0.1279372029075289	0.002795596109620586	0.435223211850932	-16.17236910593897	10.87941811347039	-12.7680798593276	23.02732037295929	-857.1142826728417	-36.92701819165034	-0.02375970054294817	-0.8011031775519548	-0.5878380388907932	2.63848237549862	-7.581324865950782	-0.2592965095204365	-1.440811284906039	-0.005645333685868787	-7.152768721879729	-7.152768721872455	-1.42651986250326	0.001109584047739837	0.8080204399431132	0.06481710516707589	1.011445091057101e-07	-2.140016656611368e-07	-9.682196504779443e-07	-1.234372754104798e-07	-2.310401687312091e-07	-1.991598789909243e-06	1.616307530779094e-07
1.06	-0.08710381114013607	-0.07484780983987459	0.4281738473549404	2.061874209163735	-0.296538917354594	0.1168193840339787	-0.9599216848171362	2.072417485560312	2.07241748556035	0.1713290589536425	-0.1744963578205667	0.2438808717526345	0.08963782231711989	-0.02899271733276709	-0.03594862241662955	0.222772977044385	-0.6972332854109605	-0.03523794562342511	-0.1387736132223059	-2.668522188852613e-05	-0.5567295844916702	-0.5567295844916271	-0.09292705424847668	0.0006090669878313245	0.1398017496431541	0.02140544606826203	-0.3736272801216794	-0.04456430771499804	-0.06127525653936527	-0.4515827220615566	0.1285102889059438	0.003358559248936478	0.4367645742156061	-16.04093937724897	10.60274727584497	-12.71350390335913	22.52735717817172	-858.6674011627542	-37.69569567650633	-0.02413540750147672	-0.7437103026516267	-0.5638995464074733	2.66047579160488	-7.604686976194925	-0.2743983786078147	-1.554453245441204	-0.00562965257820228	-7.196044906932349	-7.196044906932558	-1.343387277968319	-0.008547592541018063	0.7248893435942537	0.008836120402010129	1.241150962953733e-07	-2.766731049405742e-07	-1.137031661679138e-06	-1.51524952784424e-07	-2.683104533293967e-07	-2.423825821686829e-06	1.961448425906743e-07
1.07	-0.08742986695067048	-0.07523503785978532	0.4305349644497647	2.054520911225227	-0.2969036132622274	0.1153590248119292	-0.9599222264769656	2.066489807154567	2.066489807154571	0.1703285328403386	-0.1744906160408878	0.24531420562693	0.08985361938375605	-0.03609896762719556	-0.04144524470952172	0.2494821837558797	-0.7734593053491895	-0.03766843132562926	-0.1532639148361775	-8.158105677707117e-05	-0.6288553297996432	-0.62885532979959	-0.1072047066020144	0.0005399565309097886	0.1467218811234063	0.02172979933619969	-0.3748947122001	-0.0441858797189759	-0.0607851126701807	-0.453933964049968	0.1293237195499918	0.004065658556260375	0.4383764421223772	-15.81173535020404	10.23463401657984	-12.63095749745363	21.79486617645683	-860.1520719856428	-38.64149597098053	-0.02455140235993133	-0.676139824795891	-0.5348193405779845	2.680842773088893	-7.636490948578521	-0.2222529894589815	-1.391128311864034	-0.005409696304915763	-7.228270974969884	-7.228270974968184	-1.4737555924212	-0.006333865584592971	0.6541006518372812	0.04081978833188069	1.471521557493351e-07	-3.397760385653452e-07	-1.306351921236113e-06	-1.795134125813063e-07	-3.054405135474603e-07	-2.858132248478534e-06	2.308513827723384e-07
